<?xml version="1.0" standalone="no"?>
<!DOCTYPE svg PUBLIC "-//W3C//DTD SVG 20010904//EN"
 "http://www.w3.org/TR/2001/REC-SVG-20010904/DTD/svg10.dtd">
<svg version="1.0" xmlns="http://www.w3.org/2000/svg"
 width="512.000000pt" height="512.000000pt" viewBox="0 0 512.000000 512.000000"
 preserveAspectRatio="xMidYMid meet">

<g transform="translate(0.000000,512.000000) scale(0.100000,-0.100000)"
fill="#000000" stroke="none">
<path d="M1483 4157 l-1053 -422 0 -267 0 -268 105 0 105 0 0 -1065 0 -1065
-105 0 -105 0 0 -215 0 -215 2130 0 2130 0 0 215 0 215 -105 0 -105 0 0 1065
0 1065 105 0 105 0 0 268 0 267 -1058 423 c-581 233 -1066 422 -1077 422 -11
-1 -494 -192 -1072 -423z m1686 -284 l594 -238 -602 -3 c-330 -1 -871 -1
-1201 0 l-600 3 588 237 c323 130 596 237 607 237 11 1 287 -106 614 -236z
m-1679 -1738 l0 -1065 -210 0 -210 0 0 1065 0 1065 210 0 210 0 0 -1065z m860
0 l0 -1065 -215 0 -215 0 0 1065 0 1065 215 0 215 0 0 -1065z m850 0 l0 -1065
-215 0 -215 0 0 1065 0 1065 215 0 215 0 0 -1065z m850 0 l0 -1065 -210 0
-210 0 0 1065 0 1065 210 0 210 0 0 -1065z"/>
</g>
</svg>
